<?xml version="1.0" encoding="UTF-8" standalone="no"?>
<svg
   xmlns:dc="http://purl.org/dc/elements/1.1/"
   xmlns:cc="http://creativecommons.org/ns#"
   xmlns:rdf="http://www.w3.org/1999/02/22-rdf-syntax-ns#"
   xmlns:svg="http://www.w3.org/2000/svg"
   xmlns="http://www.w3.org/2000/svg"
   xmlns:sodipodi="http://sodipodi.sourceforge.net/DTD/sodipodi-0.dtd"
   xmlns:inkscape="http://www.inkscape.org/namespaces/inkscape"
   viewBox="0 0 12 12"
   version="1.1"
   id="svg4"
   sodipodi:docname="facebook_e9eaed_sur_3a5897.svg"
   width="12"
   height="12"
   inkscape:version="0.92.2 (5c3e80d, 2017-08-06)">
  <metadata
     id="metadata10">
    <rdf:RDF>
      <cc:Work
         rdf:about="">
        <dc:format>image/svg+xml</dc:format>
        <dc:type
           rdf:resource="http://purl.org/dc/dcmitype/StillImage" />
        <dc:title />
      </cc:Work>
    </rdf:RDF>
  </metadata>
  <defs
     id="defs8" />
  <sodipodi:namedview
     pagecolor="#ffffff"
     bordercolor="#666666"
     borderopacity="1"
     objecttolerance="10"
     gridtolerance="10"
     guidetolerance="10"
     inkscape:pageopacity="0"
     inkscape:pageshadow="2"
     inkscape:window-width="1323"
     inkscape:window-height="704"
     id="namedview6"
     showgrid="false"
     fit-margin-top="0"
     fit-margin-left="0"
     fit-margin-right="0"
     fit-margin-bottom="0"
     inkscape:zoom="20.85965"
     inkscape:cx="5.5791548"
     inkscape:cy="5.8373883"
     inkscape:window-x="43"
     inkscape:window-y="27"
     inkscape:window-maximized="1"
     inkscape:current-layer="svg4" />
  <path
     d="M 11.3375,0 H 0.6625 C 0.296875,0 0,0.29687 0,0.6625 v 10.675 C 0,11.70312 0.296875,12 0.6625,12 H 6 V 7.25 H 4.565625 V 5.5 H 6 V 4.20625 c 0,-1.55 1.075,-2.39375 2.459375,-2.39375 0.6625,0 1.375,0.05 1.540625,0.0719 V 3.50315 H 8.896875 C 8.14375,3.50312 8,3.85937 8,4.38437 V 5.5 H 9.79375 L 9.559375,7.25 H 8 V 12 h 3.3375 C 11.703125,12 12,11.70312 12,11.3375 V 0.6625 C 12,0.29687 11.703125,0 11.3375,0 Z"
     id="path2"
     style="fill:#3a5897;fill-opacity:1;stroke-width:0.03125"
     inkscape:connector-curvature="0" />
  <path
     d="M 6,12 V 7.25 H 4.5656249 V 5.5 H 6 V 4.20625 c 0,-1.55 1.075,-2.39375 2.459375,-2.39375 0.6625,0 1.375,0.05 1.540625,0.0719 V 3.50315 H 8.896875 C 8.14375,3.50312 8,3.85937 8,4.38437 V 5.5 H 9.79375 L 9.559375,7.25 H 8 V 12 Z"
     id="path2-3"
     style="fill:#e9eaed;fill-opacity:1;stroke-width:0.03125"
     inkscape:connector-curvature="0"
     sodipodi:nodetypes="cccccsscccscccccc" />
</svg>
