<?xml version="1.0" encoding="UTF-8" standalone="no"?>
<svg
   xmlns:dc="http://purl.org/dc/elements/1.1/"
   xmlns:cc="http://creativecommons.org/ns#"
   xmlns:rdf="http://www.w3.org/1999/02/22-rdf-syntax-ns#"
   xmlns:svg="http://www.w3.org/2000/svg"
   xmlns="http://www.w3.org/2000/svg"
   xmlns:sodipodi="http://sodipodi.sourceforge.net/DTD/sodipodi-0.dtd"
   xmlns:inkscape="http://www.inkscape.org/namespaces/inkscape"
   viewBox="0 0 15.999996 14.000025"
   version="1.1"
   id="svg4"
   sodipodi:docname="fleche_gauche_0022ff_fine.svg"
   width="15.999996"
   height="14.000025"
   inkscape:version="0.92.2 (5c3e80d, 2017-08-06)">
  <metadata
     id="metadata10">
    <rdf:RDF>
      <cc:Work
         rdf:about="">
        <dc:format>image/svg+xml</dc:format>
        <dc:type
           rdf:resource="http://purl.org/dc/dcmitype/StillImage" />
        <dc:title />
      </cc:Work>
    </rdf:RDF>
  </metadata>
  <defs
     id="defs8" />
  <sodipodi:namedview
     pagecolor="#ffffff"
     bordercolor="#666666"
     borderopacity="1"
     objecttolerance="10"
     gridtolerance="10"
     guidetolerance="10"
     inkscape:pageopacity="0"
     inkscape:pageshadow="2"
     inkscape:window-width="1331"
     inkscape:window-height="704"
     id="namedview6"
     showgrid="false"
     fit-margin-top="0"
     fit-margin-left="0"
     fit-margin-right="0"
     fit-margin-bottom="0"
     inkscape:zoom="20.85965"
     inkscape:cx="4.7774952"
     inkscape:cy="8.8572788"
     inkscape:window-x="35"
     inkscape:window-y="27"
     inkscape:window-maximized="1"
     inkscape:current-layer="svg4" />
  <path
     d="M 6.2039462,0.39539226 0.37957526,6.046842 C 0.12652526,6.291462 2.5625e-7,6.624642 2.5625e-7,6.991562 v 0.0169 c 0,0.36692 0.12652500375,0.7001 0.37957500375,0.94472 l 5.82437094,5.65145 c 0.5061,0.52719 1.320078,0.52719 1.821961,0 0.501883,-0.52719 0.501883,-1.37912 0,-1.90631 l -3.500527,-3.3487 H 14.705222 c 0.716976,-2e-5 1.294774,-0.60312 1.294774,-1.34962 0,-0.75915 -0.577798,-1.3496 -1.290555,-1.3496 H 4.5295982 l 3.500527,-3.3486997 c 0.501883,-0.52719 0.501883,-1.37912004 0,-1.90631004 -0.506101,-0.52719 -1.320079,-0.52719 -1.826179,0 z"
     id="path2"
     inkscape:connector-curvature="0"
     style="stroke-width:0.04217502;fill:#0022ff;fill-opacity:1"
     sodipodi:nodetypes="ccssccscccsscccc" />
</svg>
