<?xml version="1.0" encoding="UTF-8" standalone="no"?>
<svg
   xmlns:dc="http://purl.org/dc/elements/1.1/"
   xmlns:cc="http://creativecommons.org/ns#"
   xmlns:rdf="http://www.w3.org/1999/02/22-rdf-syntax-ns#"
   xmlns:svg="http://www.w3.org/2000/svg"
   xmlns="http://www.w3.org/2000/svg"
   xmlns:sodipodi="http://sodipodi.sourceforge.net/DTD/sodipodi-0.dtd"
   xmlns:inkscape="http://www.inkscape.org/namespaces/inkscape"
   height="60px"
   version="1.1"
   viewBox="0 0 60 60"
   width="60px"
   id="svg11"
   sodipodi:docname="instagram_blanc_sur_noir.svg"
   inkscape:version="0.92.2 (5c3e80d, 2017-08-06)">
  <metadata
     id="metadata15">
    <rdf:RDF>
      <cc:Work
         rdf:about="">
        <dc:format>image/svg+xml</dc:format>
        <dc:type
           rdf:resource="http://purl.org/dc/dcmitype/StillImage" />
        <dc:title></dc:title>
      </cc:Work>
    </rdf:RDF>
  </metadata>
  <sodipodi:namedview
     pagecolor="#ffffff"
     bordercolor="#666666"
     borderopacity="1"
     objecttolerance="10"
     gridtolerance="10"
     guidetolerance="10"
     inkscape:pageopacity="0"
     inkscape:pageshadow="2"
     inkscape:window-width="1323"
     inkscape:window-height="704"
     id="namedview13"
     showgrid="false"
     inkscape:zoom="7.8666667"
     inkscape:cx="18.175991"
     inkscape:cy="26.78633"
     inkscape:window-x="43"
     inkscape:window-y="27"
     inkscape:window-maximized="1"
     inkscape:current-layer="instagram" />
  <defs
     id="defs4" />
  <g
     fill="none"
     fill-rule="evenodd"
     id="black"
     stroke="none"
     stroke-width="1">
    <g
       id="instagram">
      <path
         d="M30,60 C46.5685433,60 60,46.5685433 60,30 C60,13.4314567 46.5685433,0 30,0 C13.4314567,0 0,13.4314567 0,30 C0,46.5685433 13.4314567,60 30,60 Z"
         fill="#000000"
         id="Instagram"
         style="fill:#000000" />
      <g
         transform="matrix(0.6746371,0,0,0.6746371,10.975234,10.030742)"
         id="g8"
         style="fill:#ffffff">
        <path
           inkscape:connector-curvature="0"
           d="m 28.2,16.7 c -7,0 -12.8,5.7 -12.8,12.8 0,7.1 5.7,12.8 12.8,12.8 7.1,0 12.8,-5.8 12.8,-12.8 0,-7 -5.8,-12.8 -12.8,-12.8 z m 0,21 C 23.7,37.7 20,34 20,29.5 c 0,-4.5 3.7,-8.2 8.2,-8.2 4.5,0 8.2,3.7 8.2,8.2 0,4.5 -3.7,8.2 -8.2,8.2 z"
           id="path2"
           style="fill:#ffffff" />
        <circle
           cx="41.5"
           cy="16.4"
           r="2.9000001"
           id="circle4"
           style="fill:#ffffff" />
        <path
           inkscape:connector-curvature="0"
           d="M 49,8.9 C 46.4,6.2 42.7,4.8 38.5,4.8 H 17.9 C 9.2,4.8 3.4,10.6 3.4,19.3 v 20.5 c 0,4.3 1.4,8 4.2,10.7 2.7,2.6 6.3,3.9 10.4,3.9 h 20.4 c 4.3,0 7.9,-1.4 10.5,-3.9 C 51.6,47.9 53,44.2 53,39.9 V 19.3 C 53,15.1 51.6,11.5 49,8.9 Z m -0.4,31 c 0,3.1 -1.1,5.6 -2.9,7.3 -1.8,1.7 -4.3,2.6 -7.3,2.6 H 18 c -3,0 -5.5,-0.9 -7.3,-2.6 C 8.9,45.4 8,42.9 8,39.8 V 19.3 C 8,16.3 8.9,13.8 10.7,12 12.4,10.3 15,9.4 18,9.4 h 20.6 c 3,0 5.5,0.9 7.3,2.7 1.7,1.8 2.7,4.3 2.7,7.2 z"
           id="path6"
           style="fill:#ffffff" />
      </g>
    </g>
  </g>
</svg>
