<?xml version="1.0" encoding="UTF-8" standalone="no"?>
<!-- Created with Inkscape (http://www.inkscape.org/) -->

<svg
   xmlns:dc="http://purl.org/dc/elements/1.1/"
   xmlns:cc="http://creativecommons.org/ns#"
   xmlns:rdf="http://www.w3.org/1999/02/22-rdf-syntax-ns#"
   xmlns:svg="http://www.w3.org/2000/svg"
   xmlns="http://www.w3.org/2000/svg"
   xmlns:sodipodi="http://sodipodi.sourceforge.net/DTD/sodipodi-0.dtd"
   xmlns:inkscape="http://www.inkscape.org/namespaces/inkscape"
   width="10"
   height="14.000012"
   viewBox="0 0 2.6458334 3.7041698"
   version="1.1"
   id="svg1432"
   inkscape:version="0.92.2 (5c3e80d, 2017-08-06)"
   sodipodi:docname="pin_b3e7ff_10x14_jc.svg">
  <defs
     id="defs1426" />
  <sodipodi:namedview
     id="base"
     pagecolor="#ffffff"
     bordercolor="#666666"
     borderopacity="1.0"
     inkscape:pageopacity="0.0"
     inkscape:pageshadow="2"
     inkscape:zoom="22.627417"
     inkscape:cx="-2.923974"
     inkscape:cy="7.5070146"
     inkscape:document-units="mm"
     inkscape:current-layer="layer1"
     showgrid="false"
     units="px"
     fit-margin-top="0"
     fit-margin-left="0"
     fit-margin-right="0"
     fit-margin-bottom="0"
     inkscape:window-width="1323"
     inkscape:window-height="704"
     inkscape:window-x="43"
     inkscape:window-y="27"
     inkscape:window-maximized="1" />
  <metadata
     id="metadata1429">
    <rdf:RDF>
      <cc:Work
         rdf:about="">
        <dc:format>image/svg+xml</dc:format>
        <dc:type
           rdf:resource="http://purl.org/dc/dcmitype/StillImage" />
        <dc:title />
      </cc:Work>
    </rdf:RDF>
  </metadata>
  <g
     inkscape:label="Calque 1"
     inkscape:groupmode="layer"
     id="layer1"
     transform="translate(-0.19717879,-293.31212)">
    <path
       style="fill:#b3e7ff;fill-opacity:1;fill-rule:evenodd;stroke:none;stroke-width:0.39129657"
       d="m 1.5200955,293.31212 c -0.73062655,0 -1.32291671,0.59229 -1.32291671,1.32292 0,0.73062 1.32291671,2.38125 1.32291671,2.38125 0,0 1.3229166,-1.65063 1.3229166,-2.38125 0,-0.73063 -0.5922897,-1.32292 -1.3229166,-1.32292 z m 0,0.71417 a 0.52916667,0.52916667 0 0 1 0.5291667,0.52917 0.52916667,0.52916667 0 0 1 -0.5291667,0.52916 0.52916667,0.52916667 0 0 1 -0.52916671,-0.52916 0.52916667,0.52916667 0 0 1 0.52916671,-0.52917 z"
       id="path848"
       inkscape:connector-curvature="0" />
  </g>
</svg>
