<?xml version="1.0" encoding="UTF-8" standalone="no"?>
<svg
   xmlns:dc="http://purl.org/dc/elements/1.1/"
   xmlns:cc="http://creativecommons.org/ns#"
   xmlns:rdf="http://www.w3.org/1999/02/22-rdf-syntax-ns#"
   xmlns:svg="http://www.w3.org/2000/svg"
   xmlns="http://www.w3.org/2000/svg"
   xmlns:sodipodi="http://sodipodi.sourceforge.net/DTD/sodipodi-0.dtd"
   xmlns:inkscape="http://www.inkscape.org/namespaces/inkscape"
   viewBox="0 0 11.000002 11.000038"
   version="1.1"
   id="svg4"
   sodipodi:docname="share_6a7180.svg"
   width="11.000002"
   height="11.000038"
   inkscape:version="0.92.2 (5c3e80d, 2017-08-06)">
  <metadata
     id="metadata10">
    <rdf:RDF>
      <cc:Work
         rdf:about="">
        <dc:format>image/svg+xml</dc:format>
        <dc:type
           rdf:resource="http://purl.org/dc/dcmitype/StillImage" />
        <dc:title></dc:title>
      </cc:Work>
    </rdf:RDF>
  </metadata>
  <defs
     id="defs8" />
  <sodipodi:namedview
     pagecolor="#ffffff"
     bordercolor="#666666"
     borderopacity="1"
     objecttolerance="10"
     gridtolerance="10"
     guidetolerance="10"
     inkscape:pageopacity="0"
     inkscape:pageshadow="2"
     inkscape:window-width="1331"
     inkscape:window-height="704"
     id="namedview6"
     showgrid="false"
     fit-margin-top="0"
     fit-margin-left="0"
     fit-margin-right="0"
     fit-margin-bottom="0"
     inkscape:zoom="29.5"
     inkscape:cx="7.5815296"
     inkscape:cy="6.8778293"
     inkscape:window-x="35"
     inkscape:window-y="27"
     inkscape:window-maximized="1"
     inkscape:current-layer="svg4" />
  <path
     d="m 0,11.000038 h 0.07119 c 0.04419,0 0.08592,-0.0344 0.100648,-0.0875 0.054,-0.17813 0.203749,-0.61876 0.525328,-1.2406501 0.527784,-1.02189 1.433609,-2.10628 2.319795,-2.60941 0.677527,-0.38751 1.301049,-0.67189 2.383619,-0.72502 0.05646,-0.003 0.103102,0.0531 0.103102,0.12501 v 2.55004 c 0,0.1 0.08837,0.15938 0.152198,0.10625 l 5.299932,-4.44382 c 0.05892,-0.05 0.05892,-0.15938 0,-0.20938 L 5.653425,0.02173788 c -0.06628,-0.0563 -0.152198,0.003 -0.152198,0.10625 V 2.7092779 c 0,0.0687 -0.04174,0.12188 -0.09328,0.125 -1.757643,0.11875 -3.021869,0.77502 -4.011157,2.04691 -1.497433,1.92503 -1.394331,4.34695 -1.394331,4.95946 0,0.3218801 -0.0024,0.7906301 -0.0024,1.1593901 z"
     id="path2"
     inkscape:connector-curvature="0"
     style="fill:#6a7180;fill-opacity:1;stroke-width:0.0276973" />
</svg>
