<?xml version="1.0" encoding="UTF-8" standalone="no"?>
<svg
   xmlns:dc="http://purl.org/dc/elements/1.1/"
   xmlns:cc="http://creativecommons.org/ns#"
   xmlns:rdf="http://www.w3.org/1999/02/22-rdf-syntax-ns#"
   xmlns:svg="http://www.w3.org/2000/svg"
   xmlns="http://www.w3.org/2000/svg"
   xmlns:sodipodi="http://sodipodi.sourceforge.net/DTD/sodipodi-0.dtd"
   xmlns:inkscape="http://www.inkscape.org/namespaces/inkscape"
   viewBox="0 0 12.999997 12.999995"
   version="1.1"
   id="svg4"
   sodipodi:docname="x.svg"
   width="12.999997"
   height="12.999995"
   inkscape:version="0.92.2 (5c3e80d, 2017-08-06)">
  <metadata
     id="metadata10">
    <rdf:RDF>
      <cc:Work
         rdf:about="">
        <dc:format>image/svg+xml</dc:format>
        <dc:type
           rdf:resource="http://purl.org/dc/dcmitype/StillImage" />
        <dc:title></dc:title>
      </cc:Work>
    </rdf:RDF>
  </metadata>
  <defs
     id="defs8" />
  <sodipodi:namedview
     pagecolor="#ffffff"
     bordercolor="#666666"
     borderopacity="1"
     objecttolerance="10"
     gridtolerance="10"
     guidetolerance="10"
     inkscape:pageopacity="0"
     inkscape:pageshadow="2"
     inkscape:window-width="1323"
     inkscape:window-height="704"
     id="namedview6"
     showgrid="false"
     fit-margin-top="0"
     fit-margin-left="0"
     fit-margin-right="0"
     fit-margin-bottom="0"
     inkscape:zoom="14.75"
     inkscape:cx="9.0525126"
     inkscape:cy="10.617661"
     inkscape:window-x="43"
     inkscape:window-y="27"
     inkscape:window-maximized="1"
     inkscape:current-layer="svg4" />
  <path
     d="m 8.04032,6.4999975 4.64311,-4.64432 c 0.42209,-0.42221 0.42209,-1.11681 0,-1.53902 -0.4221,-0.42221 -1.11653,-0.42221 -1.53863,0 l -4.6431,4.64431 -4.6431,-4.64431 c -0.4221,-0.42221 -1.11652,-0.42221 -1.53862,0 C 0.10893,0.5277575 0,0.8069675 0,1.0861675 c 0,0.2792 0.10893,0.55841 0.31998,0.76951 l 4.6431,4.64432 -4.6431,4.6443205 C 0.10893,11.355418 0,11.634628 0,11.913828 c 0,0.2792 0.10893,0.55841 0.31998,0.76951 0.4221,0.42221 1.11652,0.42221 1.53862,0 l 4.6431,-4.6443105 4.6431,4.6443105 c 0.4221,0.42221 1.11653,0.42221 1.53863,0 0.42209,-0.42221 0.42209,-1.11681 0,-1.53902 z"
     id="path2"
     inkscape:connector-curvature="0"
     style="stroke-width:0.06808955" />
</svg>
